<svg width="115" height="24" viewBox="0 0 115 24" fill="none" xmlns="http://www.w3.org/2000/svg">
<path d="M0.0259034 0.253662H15.7507V3.04545H9.55924V18.7832H6.16558V3.04545H0L0.0259034 0.253662ZM15.0772 5.36782H17.9786V7.96196H18.0304C18.1341 7.59137 18.3154 7.24548 18.5745 6.8996C18.8335 6.55371 19.1444 6.23253 19.533 5.96076C19.8957 5.66429 20.3102 5.44194 20.7765 5.269C21.2169 5.09605 21.6832 4.99723 22.1495 4.99723C22.5121 4.99723 22.7712 5.02193 22.9007 5.02193C23.0303 5.04664 23.1857 5.07135 23.3152 5.07135V7.91255C23.108 7.86314 22.8748 7.83843 22.6417 7.81372C22.4085 7.78901 22.2013 7.76431 21.9681 7.76431C21.45 7.76431 20.9578 7.86313 20.4915 8.06078C20.0252 8.25843 19.6366 8.5549 19.2739 8.92549C18.9371 9.32079 18.6522 9.79021 18.4449 10.3585C18.2377 10.9267 18.1341 11.5938 18.1341 12.3349V18.7091H15.0254L15.0772 5.36782ZM37.5634 18.7832H34.5065V16.9056H34.4547C34.0661 17.5973 33.4962 18.1162 32.7449 18.5362C31.9937 18.9562 31.2165 19.1538 30.4393 19.1538C28.6 19.1538 27.2529 18.7338 26.4239 17.8444C25.5949 16.9797 25.1804 15.6456 25.1804 13.8914V5.36782H28.2891V13.595C28.2891 14.7808 28.5223 15.6208 29.0145 16.0903C29.4808 16.5844 30.1544 16.8314 31.0093 16.8314C31.6569 16.8314 32.2009 16.7326 32.6413 16.535C33.0817 16.3373 33.4444 16.0903 33.7035 15.7691C33.9884 15.4479 34.1698 15.0526 34.2993 14.6079C34.4288 14.1632 34.4806 13.6691 34.4806 13.1502V5.36782H37.5893V18.7832H37.5634ZM42.8482 14.4844C42.9518 15.3491 43.2886 15.942 43.8844 16.3126C44.4803 16.6585 45.2056 16.8314 46.0346 16.8314C46.3196 16.8314 46.6564 16.8067 47.019 16.7573C47.3817 16.7079 47.7444 16.6338 48.0553 16.5103C48.3921 16.3867 48.6511 16.2138 48.8584 15.9667C49.0656 15.7197 49.1692 15.4232 49.1433 15.0526C49.1174 14.682 48.9879 14.3608 48.7029 14.1138C48.418 13.8667 48.0812 13.6938 47.6667 13.5208C47.2522 13.3726 46.76 13.2491 46.216 13.1502C45.6719 13.0514 45.1279 12.9279 44.558 12.8044C43.9881 12.6808 43.4181 12.5326 42.8741 12.3596C42.3301 12.1867 41.8638 11.9643 41.4234 11.6432C41.0089 11.3467 40.6462 10.9761 40.4131 10.5067C40.154 10.0373 40.0245 9.49373 40.0245 8.80196C40.0245 8.06078 40.2058 7.46784 40.5944 6.97371C40.9571 6.47959 41.4493 6.0843 42.0192 5.78783C42.5891 5.49135 43.2368 5.269 43.9363 5.14547C44.6357 5.02193 45.3093 4.97252 45.931 4.97252C46.6564 4.97252 47.3558 5.04664 48.0035 5.19488C48.6511 5.34312 49.2729 5.56547 49.791 5.91136C50.335 6.23253 50.7754 6.67724 51.1122 7.19607C51.4748 7.7149 51.6821 8.35726 51.7857 9.09844H48.5475C48.3921 8.38196 48.0553 7.91255 47.5372 7.66549C46.9931 7.41843 46.3973 7.2949 45.6978 7.2949C45.4906 7.2949 45.2056 7.3196 44.9207 7.34431C44.6098 7.39372 44.3507 7.44313 44.0658 7.54196C43.8067 7.64078 43.5736 7.78902 43.3922 7.96196C43.2109 8.1349 43.1073 8.38196 43.1073 8.67843C43.1073 9.04902 43.2368 9.32079 43.4959 9.54315C43.7549 9.7655 44.0917 9.93845 44.5321 10.1114C44.9466 10.2596 45.4388 10.3832 45.9828 10.482C46.5268 10.5808 47.0968 10.7043 47.6667 10.8279C48.2366 10.9514 48.7806 11.0996 49.3247 11.2726C49.8687 11.4455 50.3609 11.6679 50.7754 11.9891C51.1899 12.2855 51.5526 12.6561 51.8116 13.1008C52.0707 13.5455 52.2002 14.1138 52.2002 14.7561C52.2002 15.5467 52.0189 16.2138 51.6303 16.782C51.2417 17.3256 50.7495 17.795 50.1537 18.1409C49.5578 18.4868 48.8584 18.7338 48.133 18.9068C47.3817 19.055 46.6564 19.1538 45.931 19.1538C45.0502 19.1538 44.2212 19.055 43.4699 18.8573C42.7187 18.6597 42.0451 18.3632 41.5011 17.9926C40.9571 17.5973 40.5167 17.1279 40.2058 16.535C39.8949 15.9667 39.7136 15.275 39.6877 14.4597H42.8223V14.4844H42.8482ZM53.081 5.36782H55.4384V1.31602H58.5471V5.34311H61.345V7.54196H58.5471V14.7067C58.5471 15.0279 58.573 15.275 58.5989 15.522C58.6248 15.7444 58.7026 15.942 58.7803 16.0903C58.8839 16.2385 59.0393 16.362 59.2207 16.4362C59.4279 16.5103 59.687 16.5597 60.0497 16.5597C60.2569 16.5597 60.4901 16.5597 60.6973 16.535C60.9046 16.5103 61.1377 16.4856 61.345 16.4362V18.7338C61.0082 18.7832 60.6714 18.8079 60.3346 18.8326C59.9979 18.8821 59.687 18.8821 59.3243 18.8821C58.4953 18.8821 57.8477 18.8079 57.3555 18.6597C56.8633 18.5115 56.4747 18.2891 56.1897 18.0173C55.9047 17.7209 55.7234 17.375 55.6198 16.955C55.5162 16.535 55.4643 16.0161 55.4384 15.4726V7.56666H53.081V5.31841V5.36782ZM63.521 5.36782H66.4484V7.19607H66.5002C66.9406 6.40547 67.5364 5.86194 68.3136 5.51606C69.0908 5.17017 69.9198 4.99723 70.8524 4.99723C71.9663 4.99723 72.9249 5.17017 73.7538 5.56547C74.5828 5.93606 75.2564 6.43018 75.8004 7.09725C76.3444 7.7396 76.7589 8.5055 77.018 9.37021C77.277 10.2349 77.4325 11.1737 77.4325 12.1373C77.4325 13.0514 77.3029 13.9161 77.0698 14.7561C76.8107 15.5961 76.448 16.362 75.9558 17.0044C75.4636 17.6467 74.8419 18.1656 74.0647 18.5609C73.2875 18.9562 72.4067 19.1538 71.3705 19.1538C70.9301 19.1538 70.4638 19.1044 70.0234 19.0303C69.583 18.9562 69.1426 18.8326 68.7281 18.6597C68.3136 18.4868 67.925 18.2644 67.5883 17.9926C67.2256 17.7209 66.9406 17.3997 66.7075 17.0538H66.6556V23.7491H63.547V5.36782H63.521ZM74.3756 12.0879C74.3756 11.4949 74.2979 10.902 74.1165 10.3337C73.9611 9.7655 73.702 9.27138 73.3653 8.82667C73.0285 8.38196 72.614 8.03608 72.1477 7.76431C71.6555 7.49255 71.0855 7.36901 70.4638 7.36901C69.1685 7.36901 68.1841 7.78902 67.5105 8.65373C66.8629 9.51845 66.5261 10.6796 66.5261 12.1126C66.5261 12.8044 66.6038 13.422 66.7852 13.9902C66.9665 14.5585 67.1997 15.0526 67.5624 15.4726C67.8991 15.8926 68.3136 16.2138 68.8058 16.4609C69.298 16.7079 69.8421 16.8314 70.4897 16.8314C71.2151 16.8314 71.785 16.6832 72.2772 16.4114C72.7694 16.1397 73.158 15.7691 73.4948 15.3491C73.8057 14.9044 74.0388 14.4103 74.1683 13.842C74.2979 13.2491 74.3756 12.6808 74.3756 12.0879ZM79.8417 0.253662H82.9504V3.04545H79.8417V0.253662ZM79.8417 5.36782H82.9504V18.7832H79.8417V5.36782ZM85.7223 0.253662H88.831V18.7832H85.7223V0.253662ZM98.3125 19.1538C97.1986 19.1538 96.1883 18.9809 95.3075 18.6103C94.4267 18.2397 93.7013 17.7703 93.0796 17.1526C92.4837 16.535 92.0174 15.7691 91.7066 14.9044C91.3957 14.0397 91.2144 13.0761 91.2144 12.0632C91.2144 11.0502 91.3698 10.1114 91.7066 9.24668C92.0174 8.38196 92.4837 7.64078 93.0796 6.99842C93.6754 6.38077 94.4267 5.88665 95.3075 5.54076C96.1883 5.19488 97.1986 4.99723 98.3125 4.99723C99.4265 4.99723 100.437 5.17017 101.318 5.54076C102.198 5.88665 102.924 6.38077 103.546 6.99842C104.141 7.61607 104.608 8.38196 104.919 9.24668C105.229 10.1114 105.411 11.0502 105.411 12.0632C105.411 13.1008 105.255 14.0397 104.919 14.9044C104.582 15.7691 104.141 16.5103 103.546 17.1526C102.95 17.7703 102.198 18.2644 101.318 18.6103C100.437 18.9562 99.4524 19.1538 98.3125 19.1538ZM98.3125 16.8067C98.9861 16.8067 99.6078 16.6585 100.1 16.3867C100.618 16.115 101.007 15.7444 101.344 15.2997C101.68 14.855 101.913 14.3361 102.069 13.7926C102.224 13.2244 102.302 12.6561 102.302 12.0632C102.302 11.4949 102.224 10.9267 102.069 10.3585C101.913 9.79021 101.68 9.29609 101.344 8.85138C101.007 8.40667 100.592 8.06079 100.1 7.78902C99.5819 7.51725 98.9861 7.36901 98.3125 7.36901C97.639 7.36901 97.0173 7.51725 96.5251 7.78902C96.0069 8.06079 95.6184 8.43138 95.2816 8.85138C94.9448 9.29609 94.7116 9.79021 94.5562 10.3585C94.4008 10.9267 94.3231 11.4949 94.3231 12.0632C94.3231 12.6561 94.4008 13.2244 94.5562 13.7926C94.7116 14.3608 94.9448 14.855 95.2816 15.2997C95.6184 15.7444 96.0328 16.115 96.5251 16.3867C97.0432 16.6832 97.639 16.8067 98.3125 16.8067ZM106.343 5.36782H108.701V1.31602H111.809V5.34311H114.607V7.54196H111.809V14.7067C111.809 15.0279 111.835 15.275 111.861 15.522C111.887 15.7444 111.965 15.942 112.043 16.0903C112.146 16.2385 112.302 16.362 112.483 16.4362C112.69 16.5103 112.949 16.5597 113.312 16.5597C113.519 16.5597 113.752 16.5597 113.96 16.535C114.167 16.5103 114.4 16.4856 114.607 16.4362V18.7338C114.271 18.7832 113.934 18.8079 113.597 18.8326C113.26 18.8821 112.949 18.8821 112.587 18.8821C111.758 18.8821 111.11 18.8079 110.618 18.6597C110.126 18.5115 109.737 18.2891 109.452 18.0173C109.167 17.7209 108.986 17.375 108.882 16.955C108.779 16.535 108.727 16.0161 108.701 15.4726V7.56666H106.343V5.31841V5.36782Z" fill="#0F172A"/>
</svg>
